<?xml version="1.0" standalone="no"?>
<!DOCTYPE svg PUBLIC "-//W3C//DTD SVG 20010904//EN"
 "http://www.w3.org/TR/2001/REC-SVG-20010904/DTD/svg10.dtd">
<svg version="1.0" xmlns="http://www.w3.org/2000/svg"
 width="180.000000pt" height="180.000000pt" viewBox="0 0 180.000000 180.000000"
 preserveAspectRatio="xMidYMid meet">
<metadata>
Created by potrace 1.11, written by Peter Selinger 2001-2013
</metadata>
<g transform="translate(0.000000,180.000000) scale(0.100000,-0.100000)"
fill="#000000" stroke="none">
<path d="M0 900 l0 -900 100 0 100 0 0 90 c0 53 -4 90 -10 90 -6 0 -10 27 -10
60 0 33 4 60 10 60 7 0 10 203 10 590 0 387 -3 590 -10 590 -6 0 -10 28 -10
65 0 37 4 65 10 65 6 0 10 38 10 95 l0 95 -100 0 -100 0 0 -900z"/>
<path d="M640 1705 l0 -95 148 0 c182 -1 392 -15 458 -31 111 -27 185 -84 226
-174 18 -40 22 -68 23 -145 0 -87 -3 -100 -30 -149 -34 -62 -90 -111 -165
-144 l-53 -24 54 -11 c131 -26 232 -101 270 -201 18 -47 20 -72 17 -161 -3
-89 -8 -114 -32 -167 -34 -75 -95 -134 -172 -170 -93 -42 -184 -52 -476 -53
l-268 0 0 -90 0 -90 580 0 580 0 0 900 0 900 -580 0 -580 0 0 -95z"/>
<path d="M650 1216 l0 -227 168 1 c93 1 189 6 215 12 96 20 146 81 154 191 9
113 -28 188 -109 223 -35 14 -81 18 -235 22 l-193 4 0 -226z"/>
<path d="M650 600 l0 -262 223 4 c250 4 283 11 343 80 43 49 58 98 59 193 0
67 -4 89 -25 130 -21 42 -35 55 -85 80 l-60 30 -227 3 -228 4 0 -262z"/>
</g>
</svg>
